<?xml version="1.0" encoding="UTF-8" standalone="no"?>
<svg
   width="48"
   height="48"
   viewBox="0 0 48 48"
   fill="none"
   version="1.1"
   id="svg4"
   xml:space="preserve"
   xmlns="http://www.w3.org/2000/svg"
   xmlns:svg="http://www.w3.org/2000/svg"><defs
     id="defs8" /><path
     d="m 47.264287,43.181887 -10.8813,-10.8813 c 2.6197,-3.4876 4.0339,-7.7326 4.0292,-12.0945 0,-11.1415797 -9.0646,-20.206099643575 -20.2061,-20.206099643575 C 9.0645072,-1.2643575e-5 -1.2818959e-5,9.0645073 -1.2818959e-5,20.206087 c 0,11.1415 9.064520018959,20.2061 20.206099818959,20.2061 4.3619,0.0047 8.6069,-1.4095 12.0945,-4.0292 l 10.8813,10.8813 c 0.5509,0.4924 1.2693,0.7552 2.0078,0.7346 0.7385,-0.0207 1.4411,-0.3233 1.9635,-0.8457 0.5224,-0.5224 0.825,-1.225 0.8457,-1.9635 0.0206,-0.7385 -0.2422,-1.4569 -0.7346,-2.0078 z M 5.7731572,20.206087 c 0,-2.8546 0.84647,-5.645 2.43238,-8.0185 1.58591,-2.3734997 3.8400498,-4.2233997 6.4772498,-5.3157897 2.6373,-1.0924 5.5393,-1.37822 8.339,-0.82132 2.7997,0.5569 5.3714,1.9315 7.3899,3.9500097 2.0185,2.0184 3.3931,4.5901 3.95,7.3899 0.5569,2.7997 0.271,5.7016 -0.8213,8.3389 -1.0924,2.6373 -2.9423,4.8914 -5.3158,6.4773 -2.3735,1.5859 -5.164,2.4324 -8.0185,2.4324 -3.8265,-0.0046 -7.4949,-1.5267 -10.2006,-4.2324 -2.7056598,-2.7057 -4.2277398,-6.3741 -4.2323298,-10.2005 z"
     fill="#000000"
     id="path2"
     style="display:inline;fill:none" /><path
     d="m 29.975233,47.573427 c -0.763593,0 -1.507109,-0.24176 -2.121129,-0.689643 -0.03413,-0.02342 -0.06709,-0.04852 -0.09854,-0.07512 L 14.104961,35.786086 H 3.6840742 c -0.950844,0 -1.8627555,-0.372427 -2.5351022,-1.035636 C 0.47662363,34.087242 0.09890104,33.187795 0.09890104,32.250034 V 15.747908 c 0,-0.937844 0.37772259,-1.837275 1.05007096,-2.500433 0.6723467,-0.663158 1.5842582,-1.035719 2.5351022,-1.035719 H 14.103472 L 27.752548,1.1892531 c 0.03145,-0.026667 0.06441,-0.051748 0.09854,-0.075145 0.53388,-0.38733441 1.166303,-0.62110347 1.826835,-0.67534167 0.660364,-0.0542382 1.323238,0.0731786 1.914838,0.36809754 0.591434,0.29491853 1.088505,0.74579323 1.435836,1.30254183 0.347331,0.5567504 0.531537,1.1975897 0.531872,1.8513117 V 44.037208 c 0,0.93776 -0.377781,1.837207 -1.050024,2.500416 -0.67241,0.663208 -1.584238,1.035803 -2.535216,1.035803 z M 43.120946,35.786086 c -0.407896,0 -0.808933,-0.103062 -1.164965,-0.299147 -0.356198,-0.196252 -0.655344,-0.479002 -0.869331,-0.821481 -0.213987,-0.342479 -0.335452,-0.733311 -0.353187,-1.135184 -0.01757,-0.401873 0.06943,-0.801572 0.252802,-1.160949 1.4176,-2.780322 2.136187,-5.598958 2.136187,-8.370412 0,-2.855444 -0.696168,-5.590091 -2.128658,-8.358551 -0.274552,-0.555345 -0.317048,-1.194762 -0.118287,-1.780674 0.198595,-0.585912 0.622553,-1.07149 1.180525,-1.352266 0.557971,-0.280759 1.205285,-0.334264 1.802909,-0.149004 0.597456,0.18526 1.097372,0.594478 1.392169,1.139617 1.782163,3.446275 2.649989,6.882176 2.649989,10.500878 0,3.51564 -0.896268,7.04433 -2.643966,10.489198 -0.199097,0.39033 -0.504266,0.71842 -0.881545,0.947632 -0.377279,0.229379 -0.811611,0.35051 -1.254642,0.350343 z"
     fill="#000000"
     id="path237"
     style="display:inline;fill:none;fill-opacity:1;stroke-width:1.67308" /></svg>
